<?xml version="1.0" standalone="no"?>
<!DOCTYPE svg PUBLIC "-//W3C//DTD SVG 20010904//EN"
 "http://www.w3.org/TR/2001/REC-SVG-20010904/DTD/svg10.dtd">
<svg version="1.0" xmlns="http://www.w3.org/2000/svg"
 width="512.000000pt" height="512.000000pt" viewBox="0 0 512.000000 512.000000"
 preserveAspectRatio="xMidYMid meet">
<metadata>
Created by potrace 1.10, written by Peter Selinger 2001-2011
</metadata>
<g transform="translate(0.000000,512.000000) scale(0.050000,-0.050000)"
fill="#ffffff" stroke="none">
<path d="M3850 10190 c-121 -14 -310 -50 -420 -80 -110 -30 -235 -63 -279 -73
-733 -176 -1698 -866 -2274 -1627 -375 -495 -749 -1365 -807 -1881 -6 -54 -20
-171 -31 -258 -33 -279 -27 -399 19 -353 41 41 61 91 72 182 5 32 22 101 40
152 17 51 27 98 21 104 -6 6 -1 22 11 37 13 15 17 40 11 55 -6 16 -3 32 7 36
10 3 20 51 22 106 2 55 11 109 19 120 8 11 44 119 80 240 75 257 251 677 373
890 47 83 86 156 86 164 0 8 21 36 46 63 25 27 59 75 75 106 16 31 49 79 74
107 25 27 45 60 45 72 0 12 31 53 70 90 38 37 70 75 70 83 0 8 45 59 100 113
55 54 100 108 100 121 0 13 8 19 17 13 9 -6 79 52 155 128 178 180 176 178
323 281 69 48 125 94 125 103 0 9 12 16 26 16 15 0 44 16 65 36 22 20 53 42
69 50 17 8 57 32 90 53 33 21 105 61 160 89 55 28 114 59 130 69 172 106 719
296 1040 363 116 23 224 48 240 54 17 6 66 14 110 19 44 4 83 16 86 25 3 10
23 13 45 8 21 -6 39 -2 39 9 0 11 42 25 93 30 56 7 100 24 111 43 10 18 31 32
46 32 15 0 33 9 40 20 17 27 -262 22 -540 -10z"/>
<path d="M4636 10199 c26 -10 42 -27 35 -37 -14 -23 106 -66 134 -49 13 8 15
3 5 -13 -12 -20 -5 -23 27 -15 24 6 48 4 53 -5 9 -14 62 -27 220 -52 22 -4
143 -29 268 -57 125 -27 235 -45 243 -40 9 5 19 2 22 -6 5 -12 357 -138 437
-156 27 -6 187 -81 340 -159 254 -128 309 -158 322 -176 7 -9 27 -19 45 -21
18 -3 62 -28 98 -57 209 -164 415 -315 415 -303 0 7 42 -33 93 -90 51 -56 100
-97 110 -91 10 6 16 3 12 -6 -7 -25 209 -266 239 -266 15 0 26 -12 26 -26 0
-14 36 -63 80 -109 44 -46 80 -93 80 -104 0 -11 18 -32 40 -46 22 -13 40 -36
40 -50 0 -14 10 -25 21 -25 12 0 17 -8 11 -17 -6 -10 7 -34 28 -53 22 -20 40
-43 40 -52 0 -30 134 -238 147 -228 7 6 9 5 4 -2 -9 -13 109 -250 150 -299 13
-16 17 -29 9 -29 -8 0 0 -22 17 -48 40 -62 244 -675 263 -792 8 -49 20 -99 27
-110 7 -11 14 -38 16 -60 2 -22 10 -119 18 -215 8 -96 23 -175 32 -175 27 0
20 -56 -8 -65 -19 -7 -19 -16 2 -42 18 -21 20 -33 5 -33 -32 0 -29 -234 3
-247 20 -8 20 -10 0 -11 -19 -2 -25 -79 -24 -317 0 -173 -9 -363 -20 -422 -11
-59 -15 -116 -8 -127 7 -11 2 -27 -10 -34 -12 -8 -26 -50 -30 -93 -5 -43 -18
-104 -31 -135 -12 -31 -22 -67 -22 -80 0 -25 -92 -277 -199 -543 -35 -88 -119
-254 -186 -370 -67 -116 -136 -237 -153 -269 -33 -61 -74 -117 -117 -163 -14
-14 -25 -31 -25 -38 0 -6 -14 -27 -31 -46 -105 -118 -168 -197 -169 -210 0
-22 -388 -403 -405 -399 -8 2 -15 -10 -15 -26 0 -17 -11 -30 -25 -30 -14 0
-71 -37 -125 -82 -55 -44 -130 -105 -167 -135 -37 -29 -81 -66 -99 -83 -17
-16 -32 -26 -33 -20 -2 18 -331 -184 -331 -204 0 -11 -13 -15 -30 -9 -16 7
-30 4 -30 -6 0 -18 -77 -52 -103 -46 -7 2 -28 -14 -48 -36 -19 -21 -56 -39
-82 -39 -26 0 -47 -10 -47 -21 0 -12 -8 -16 -18 -10 -20 12 -205 -65 -224 -93
-6 -10 -20 -16 -30 -13 -22 6 -227 -43 -268 -65 -42 -23 -370 -99 -485 -112
-52 -6 -95 -17 -95 -24 0 -37 -925 -39 -1170 -2 -88 14 -194 25 -235 25 -41 0
-75 7 -75 16 0 9 -38 22 -85 31 -108 20 -97 17 -155 37 -27 9 -63 18 -80 20
-16 2 -43 9 -60 16 -16 7 -124 45 -240 86 -115 40 -248 87 -295 104 -47 16
-85 38 -85 49 0 10 -8 13 -18 7 -11 -6 -32 2 -49 19 -17 16 -44 30 -62 30 -17
0 -31 8 -31 18 0 9 -28 29 -62 43 -34 14 -114 59 -178 101 -64 41 -120 71
-125 66 -5 -5 -21 5 -35 22 -14 16 -37 30 -52 30 -16 0 -28 9 -28 20 0 11 -13
20 -30 20 -16 0 -28 7 -25 15 3 8 -2 17 -10 20 -8 3 -32 21 -52 40 -56 53
-132 114 -143 115 -36 4 -100 56 -100 82 0 17 -8 26 -17 20 -10 -6 -46 25 -81
69 -36 44 -73 75 -83 68 -11 -6 -19 3 -19 21 0 19 -9 27 -23 18 -13 -8 -18 -5
-11 6 16 25 -74 112 -94 91 -9 -8 -12 -5 -9 6 4 12 -20 47 -53 77 -33 30 -46
48 -30 40 17 -9 -2 20 -40 63 -39 44 -101 122 -139 174 -37 52 -75 95 -84 95
-10 0 -17 12 -17 26 0 15 -18 46 -40 69 -22 24 -40 52 -40 63 0 11 -14 28 -31
38 -17 9 -34 30 -36 45 -3 16 -38 88 -78 160 -41 72 -107 202 -147 290 -40 87
-83 166 -96 174 -12 8 -16 15 -8 15 11 0 -96 345 -137 440 -7 17 -14 39 -16
50 -7 44 -37 141 -51 160 -7 11 -16 65 -18 119 -2 55 -13 110 -24 123 -11 13
-18 31 -16 41 1 9 1 22 -1 27 -2 6 -8 46 -13 89 -6 44 -18 89 -27 100 -10 12
-23 62 -31 111 -7 50 -32 119 -56 155 l-44 65 -7 -85 c-5 -72 13 -297 50 -595
79 -642 508 -1519 1056 -2158 644 -751 1792 -1379 2692 -1473 60 -6 186 -20
279 -30 218 -24 582 -24 800 0 94 10 219 24 279 30 742 77 1671 522 2351 1125
723 642 1330 1772 1421 2647 6 60 20 186 30 279 24 223 24 585 -2 806 -11 97
-24 223 -29 279 -82 853 -699 2001 -1420 2641 -495 439 -1228 863 -1681 971
-44 10 -164 42 -269 71 -284 79 -1111 158 -944 91z"/>
<path d="M8724 10176 c-29 -29 -32 -116 -5 -116 11 0 15 14 8 30 -18 48 10
107 34 69 15 -24 18 -23 19 6 0 41 -22 45 -56 11z"/>
<path d="M8903 10067 c12 -15 17 -50 12 -77 -5 -28 -3 -55 4 -59 8 -5 16 30
18 77 3 65 -3 85 -26 85 -23 0 -25 -6 -8 -26z"/>
<path d="M8447 9865 c9 -14 6 -25 -7 -25 -14 0 -15 -12 -3 -35 9 -19 14 -46 9
-60 -5 -14 6 -25 27 -25 21 0 28 7 17 15 -11 8 -23 38 -26 65 -5 40 -1 44 15
20 11 -16 21 -20 21 -7 0 12 -15 34 -34 50 -23 18 -29 19 -19 2z"/>
<path d="M8920 9650 c2 -33 3 -64 0 -70 -20 -56 -7 -120 26 -120 22 0 31 -9
22 -23 -9 -15 -5 -18 12 -7 21 13 20 21 -5 39 -21 15 -32 55 -32 119 0 52 -6
101 -13 109 -8 7 -12 -14 -10 -47z"/>
<path d="M8415 9651 c-31 -23 -32 -29 -5 -51 24 -20 32 -19 42 7 19 51 1 73
-37 44z"/>
<path d="M2593 7869 c-244 -48 -663 -215 -690 -274 -3 -8 -18 -15 -33 -15 -14
0 -55 -27 -90 -60 -35 -33 -71 -60 -79 -60 -29 0 -121 -83 -111 -100 6 -9 -7
-23 -29 -30 -36 -11 -219 -210 -193 -210 7 0 -6 -18 -28 -40 -22 -22 -40 -53
-40 -68 0 -16 -7 -32 -16 -35 -52 -22 -234 -435 -252 -573 -4 -30 -15 -72 -24
-94 -76 -171 -7 -1267 91 -1469 9 -17 50 -105 92 -196 43 -91 84 -165 93 -165
9 0 35 -40 58 -90 23 -49 50 -85 60 -79 10 6 18 0 18 -15 1 -44 226 -264 335
-327 36 -21 65 -45 65 -53 0 -9 14 -16 30 -16 17 0 30 -9 30 -20 0 -11 13 -20
30 -20 16 0 47 -15 69 -33 192 -166 940 -294 1308 -225 57 11 152 29 212 40
60 11 121 30 135 42 15 12 42 23 61 25 69 7 145 36 145 54 0 11 9 14 20 7 11
-7 20 -2 20 10 0 12 8 17 18 11 11 -6 33 3 50 20 18 18 32 26 32 19 0 -11 115
62 140 89 6 6 34 23 63 38 56 29 277 225 277 245 0 7 35 51 78 99 43 47 91
109 105 137 15 29 33 57 39 62 66 53 271 604 275 740 0 17 11 71 24 120 59
231 -5 986 -109 1275 -88 246 -341 664 -393 650 -10 -3 -17 3 -14 12 6 20
-143 173 -169 173 -10 0 -34 21 -53 46 -19 26 -48 48 -65 51 -16 2 -56 23 -89
46 -77 55 -218 126 -263 133 -20 3 -45 10 -56 17 -49 29 -231 79 -248 68 -11
-6 -25 -2 -33 10 -7 12 -27 16 -44 10 -18 -7 -38 -2 -46 11 -22 35 -634 40
-806 7z m857 -202 c823 -163 1288 -732 1372 -1678 121 -1357 -700 -2287 -1962
-2223 -1148 59 -1795 891 -1717 2206 72 1205 1073 1940 2307 1695z"/>
<path d="M2670 7230 c-710 -156 -1082 -796 -991 -1705 84 -847 546 -1316 1291
-1312 787 5 1264 491 1321 1349 78 1167 -623 1888 -1621 1668z m719 -217 c64
-29 123 -48 133 -42 10 7 24 -2 30 -19 6 -17 31 -36 54 -44 23 -7 56 -30 73
-52 17 -21 49 -41 71 -44 22 -3 40 -16 40 -29 0 -13 23 -43 50 -68 28 -25 53
-58 57 -75 3 -16 14 -33 25 -37 10 -3 18 -17 18 -30 0 -13 15 -46 34 -73 19
-26 35 -62 37 -79 2 -17 19 -83 38 -147 99 -333 14 -1242 -132 -1405 -21 -23
-31 -48 -24 -55 8 -8 3 -14 -10 -14 -12 0 -23 -14 -23 -31 0 -17 -8 -26 -18
-20 -9 6 -30 -5 -45 -23 -23 -29 -23 -31 3 -16 19 11 17 2 -7 -26 -21 -23 -48
-41 -60 -38 -13 2 -21 -7 -18 -21 3 -14 -2 -24 -10 -23 -36 6 -60 -4 -101 -43
-24 -22 -44 -36 -44 -31 0 5 -50 -12 -110 -39 -155 -68 -363 -97 -580 -79 -99
8 -200 15 -225 17 -25 2 -45 10 -45 18 0 8 -23 15 -51 15 -29 0 -64 11 -78 25
-14 14 -66 50 -114 80 -190 119 -217 140 -217 174 0 12 -13 27 -30 34 -16 6
-30 19 -30 30 0 10 -21 51 -47 92 -165 264 -232 1045 -121 1415 20 66 35 125
33 130 -1 6 33 63 77 127 43 65 78 125 78 135 0 10 9 18 20 18 11 0 20 13 20
29 0 18 12 25 30 18 17 -6 30 -2 30 9 0 12 49 52 110 89 60 38 103 76 95 85
-8 9 -5 11 7 4 13 -7 62 6 110 30 226 112 655 126 867 29z"/>
<path d="M6260 7872 c-60 -13 -121 -30 -135 -39 -14 -9 -50 -20 -80 -26 -69
-12 -345 -149 -345 -171 0 -9 -13 -16 -28 -16 -15 0 -33 -14 -39 -30 -7 -17
-35 -39 -64 -50 -31 -12 -46 -29 -37 -43 9 -14 5 -18 -9 -9 -27 17 -183 -215
-183 -271 0 -20 -7 -37 -16 -37 -60 0 -121 -625 -69 -708 8 -12 16 -38 20 -58
12 -78 108 -251 181 -326 42 -43 82 -93 89 -111 7 -19 64 -72 126 -120 63 -47
140 -110 172 -139 31 -30 118 -84 192 -121 74 -37 140 -73 146 -81 6 -8 151
-82 323 -164 171 -82 318 -159 325 -171 8 -12 22 -16 32 -10 11 6 19 2 19 -10
0 -11 9 -21 20 -21 11 0 42 -19 69 -43 27 -23 69 -52 93 -65 135 -67 173 -528
43 -510 -35 5 -104 -28 -94 -44 6 -10 -15 -18 -46 -18 -32 0 -65 -6 -72 -14
-17 -17 -44 -21 -312 -43 -282 -24 -633 18 -879 106 -217 77 -388 -36 -444
-294 -33 -154 -30 -315 7 -315 9 0 13 -8 7 -17 -31 -50 157 -164 348 -211 454
-111 1435 -110 1519 3 6 8 20 16 31 16 80 5 274 90 340 150 22 20 53 39 70 43
16 3 42 20 56 36 24 27 25 27 13 0 -8 -16 7 -8 33 20 26 27 46 57 43 66 -4 9
2 12 12 6 10 -7 33 11 51 38 18 28 27 50 19 50 -7 0 5 16 27 35 240 209 269
1061 42 1207 -11 7 -21 20 -23 30 -2 10 -10 16 -19 13 -10 -4 -11 3 -4 15 7
11 1 20 -12 20 -14 0 -18 6 -11 14 16 16 -185 226 -217 226 -11 0 -42 26 -69
59 -27 32 -56 54 -65 49 -9 -6 -16 -2 -16 8 0 29 -201 146 -225 131 -12 -7
-15 -4 -8 8 8 13 -16 31 -57 45 -38 13 -70 29 -70 37 0 8 -20 16 -45 18 -24 2
-48 13 -51 24 -4 12 -25 21 -46 21 -21 0 -38 7 -38 16 0 20 -130 84 -171 84
-16 0 -29 7 -29 16 0 20 -121 70 -157 65 -15 -2 -21 6 -14 17 7 12 -12 27 -43
34 -31 7 -67 27 -81 44 -14 18 -25 23 -25 13 0 -11 -7 -10 -15 1 -30 40 -203
170 -227 170 -13 0 -19 6 -11 13 7 8 -1 35 -17 60 -88 134 -34 341 103 391 37
13 67 34 67 47 0 65 661 53 947 -18 258 -63 333 -66 396 -14 26 22 41 40 33
40 -8 1 7 22 33 48 107 107 146 448 65 570 -60 91 -196 165 -320 173 -46 4
-97 11 -114 17 -142 50 -863 67 -1060 25z m730 -172 c405 -38 675 -98 663
-147 -9 -38 -24 -126 -64 -369 -6 -36 -20 -60 -30 -53 -138 85 -968 160 -1222
110 -299 -59 -455 -220 -457 -469 -1 -311 184 -482 886 -821 900 -435 1183
-775 1098 -1322 -86 -550 -528 -832 -1354 -862 -396 -15 -1043 80 -1128 164
-7 7 53 294 90 431 8 28 28 25 163 -23 751 -265 1636 -122 1745 283 91 335
-101 540 -862 918 -896 446 -1152 741 -1111 1280 50 659 609 969 1583 880z"/>
</g>
</svg>
