<?xml version="1.0" standalone="no"?>
<!DOCTYPE svg PUBLIC "-//W3C//DTD SVG 20010904//EN"
 "http://www.w3.org/TR/2001/REC-SVG-20010904/DTD/svg10.dtd">
<svg version="1.0" xmlns="http://www.w3.org/2000/svg"
 width="900.000000pt" height="900.000000pt" viewBox="0 0 900.000000 900.000000"
 preserveAspectRatio="xMidYMid meet">
<metadata>
Created by potrace 1.10, written by Peter Selinger 2001-2011
</metadata>
<g transform="translate(0.000000,900.000000) scale(0.100000,-0.100000)"
fill="#ffffff" stroke="none">
<path d="M4127 8986 c-4 -10 -32 -16 -94 -20 -197 -15 -538 -78 -753 -141
-163 -48 -383 -122 -445 -150 -16 -7 -55 -23 -85 -35 -151 -60 -421 -195 -520
-260 -8 -6 -22 -13 -30 -17 -8 -4 -33 -18 -55 -32 -22 -14 -44 -28 -50 -31 -5
-3 -43 -27 -83 -55 -41 -27 -81 -54 -90 -60 -44 -27 -230 -169 -332 -254 -148
-123 -418 -393 -541 -541 -85 -102 -227 -288 -254 -332 -5 -9 -32 -49 -60 -90
-27 -40 -52 -77 -55 -83 -5 -10 -43 -71 -68 -110 -6 -11 -15 -27 -19 -35 -4
-8 -25 -47 -47 -85 -62 -106 -158 -305 -206 -425 -12 -30 -28 -68 -35 -85 -20
-43 -69 -184 -105 -300 -69 -219 -78 -257 -134 -530 -16 -80 -41 -254 -56
-397 -13 -125 -13 -731 0 -856 15 -143 40 -317 56 -397 56 -273 65 -311 134
-530 36 -116 85 -257 105 -300 7 -16 23 -55 35 -85 60 -151 195 -421 260 -520
6 -8 13 -22 17 -30 7 -17 77 -126 132 -208 20 -30 41 -61 46 -70 26 -43 169
-229 254 -332 123 -148 393 -418 541 -541 103 -85 289 -227 332 -254 9 -5 49
-32 90 -60 40 -27 78 -52 83 -55 10 -5 71 -43 110 -68 11 -6 27 -15 35 -19 8
-4 32 -17 54 -31 74 -46 341 -176 456 -222 30 -12 69 -28 85 -35 62 -28 282
-102 445 -150 215 -63 526 -121 775 -144 143 -14 727 -14 870 0 249 23 560 81
775 144 163 48 383 122 445 150 17 7 55 23 85 35 145 58 425 198 520 260 8 6
22 13 30 17 8 4 33 18 55 32 22 14 45 28 50 31 6 3 43 28 83 55 41 28 81 55
90 60 44 27 230 169 332 254 148 123 418 393 541 541 85 102 227 288 254 332
6 9 33 49 60 90 28 40 52 78 55 83 5 10 43 71 68 110 6 11 15 27 19 35 4 8 25
47 47 85 62 106 158 305 206 425 12 30 28 69 35 85 28 62 102 282 150 445 63
215 126 556 141 753 4 62 10 90 20 94 21 8 21 711 -1 727 -10 8 -17 48 -25
131 -15 182 -54 403 -107 610 -40 158 -139 464 -178 550 -7 17 -23 55 -35 85
-60 151 -195 421 -260 520 -6 8 -13 22 -17 30 -4 8 -18 33 -32 55 -14 22 -28
45 -31 50 -3 6 -27 43 -55 83 -27 41 -54 81 -60 90 -27 44 -169 230 -254 332
-124 149 -395 419 -541 541 -104 86 -290 228 -332 254 -9 6 -51 34 -93 63 -41
28 -78 52 -80 52 -2 0 -21 12 -42 26 -21 14 -47 30 -58 35 -11 5 -27 13 -35
19 -100 65 -370 200 -520 260 -30 12 -68 28 -85 35 -62 28 -282 102 -445 150
-214 62 -564 128 -753 141 -62 4 -90 10 -94 20 -4 12 -65 14 -363 14 -298 0
-359 -2 -363 -14z m-747 -2450 c153 -22 279 -53 390 -96 30 -12 63 -24 74 -27
10 -3 60 -28 110 -55 346 -188 610 -531 729 -948 77 -269 107 -507 107 -840 0
-340 -37 -632 -114 -905 -13 -47 -20 -68 -61 -185 -69 -194 -229 -445 -380
-595 -73 -74 -241 -204 -310 -242 -207 -112 -385 -171 -631 -208 -137 -20
-506 -21 -635 0 -368 59 -637 185 -857 403 -83 81 -222 248 -222 266 0 3 -12
22 -26 43 -28 41 -124 236 -124 251 0 5 -11 35 -25 66 -14 31 -29 73 -34 94
-5 20 -20 80 -33 132 -123 469 -115 1155 18 1615 43 151 63 203 131 345 248
516 700 826 1298 890 55 6 114 12 130 14 60 8 362 -4 465 -18z m3555 4 c130
-14 300 -49 400 -82 17 -6 46 -14 65 -18 19 -4 60 -18 90 -30 30 -12 70 -26
88 -31 30 -9 32 -13 32 -57 0 -26 -6 -78 -14 -117 -8 -38 -22 -117 -31 -175
-24 -153 -23 -150 -51 -160 -46 -18 -75 -10 -152 40 -284 187 -635 271 -895
214 -273 -59 -470 -228 -553 -474 -28 -85 -26 -256 4 -335 43 -113 150 -232
302 -335 79 -53 178 -107 400 -216 291 -144 394 -197 470 -243 19 -11 44 -25
55 -31 86 -44 215 -143 303 -231 143 -144 222 -271 264 -427 31 -113 31 -393
0 -502 -27 -96 -51 -163 -63 -175 -5 -5 -9 -15 -9 -22 0 -15 -81 -152 -124
-208 -16 -22 -59 -70 -95 -106 -350 -350 -874 -476 -1471 -353 -203 42 -352
93 -557 191 -109 51 -104 36 -78 243 36 277 43 314 66 333 31 25 49 21 95 -22
91 -84 241 -185 349 -235 22 -11 51 -24 65 -31 37 -18 213 -70 302 -89 117
-26 365 -24 483 4 336 80 565 345 566 655 1 144 -50 272 -146 371 -108 111
-241 193 -640 394 -502 253 -623 328 -771 475 -55 55 -140 160 -173 215 -117
198 -148 503 -74 745 21 70 74 197 90 216 7 8 13 19 13 23 0 20 102 150 174
221 81 80 160 140 246 185 25 14 52 29 60 35 60 45 319 124 465 143 101 13
334 14 450 2z"/>
<path d="M2739 6121 c-285 -59 -489 -177 -644 -376 -55 -71 -155 -235 -155
-255 0 -4 -13 -38 -29 -76 -137 -330 -178 -887 -105 -1429 14 -107 28 -174 61
-300 24 -93 62 -193 111 -290 123 -246 291 -400 547 -503 170 -68 492 -103
656 -72 30 6 81 15 114 20 200 32 403 131 544 264 148 142 277 368 334 591 81
311 109 626 89 983 -23 392 -82 652 -200 887 -101 202 -246 351 -438 455 -28
15 -60 29 -70 33 -10 3 -44 15 -74 27 -30 11 -99 30 -153 40 -133 27 -459 27
-588 1z"/>
</g>
</svg>
