<svg width="480" height="288" xmlns="http://www.w3.org/2000/svg">
 <clipPath id="p.0">
  <path id="svg_1" clip-rule="nonzero" d="m0,0l480,0l0,480l-480,0l0,-480z"/>
 </clipPath>

 <g>
  <title>background</title>
  <rect fill="none" id="canvas_background" height="290" width="482" y="-1" x="-1"/>
 </g>
 <g>
  <title>Layer 1</title>
  <g id="svg_2" clip-path="url(#p.0)">
   <path id="svg_3" fill-rule="evenodd" d="m-0.000015,-103l480,0l0,480l-480,0l0,-480z" fill-opacity="0" fill="#000000"/>
   <path id="svg_4" fill-rule="evenodd" d="m-31.811035,-103l543.6221,0l0,480l-543.6221,0l0,-480z" fill-opacity="0" fill="#000000"/>
   <path id="svg_5" fill-rule="nonzero" d="m99.006195,285.40625q-36,0 -60.60938,-22q-24.59375,-22 -24.59375,-54.40625l-4,-196l57.59375,-10l-6.39063,175.20312q0,28 13.00001,43.60938q13,15.59375 40.1875,15.59375q27.20312,0 39.20312,-15.20313q12,-15.20312 12,-52.40625l-4.79687,-156.79688l56,-10l-4.40625,176q0,47.20313 -31.59375,76.8125q-31.59375,29.59375 -81.59375,29.59375l0,0.00001zm272.40002,0q-52.40625,0 -84.40625,-35.20312q-31.99999,-35.20313 -31.99999,-93.20313q0,-66 39.99999,-111.20312q40,-45.20313 98.40625,-45.20313q23.1875,0 42.98437,4.20313q19.8125,4.20312 28.20313,8.60937l8,4.39063l-23.1875,55.60937q-12,-8 -32.40625,-15q-20.40625,-7 -36,-7q-32.40625,0 -52,22.79688q-19.59375,22.79687 -19.59375,60.39062q0,50.8125 18.59375,79.21875q18.59375,28.39063 51.79687,28.39063q21.60938,0 40.79688,-6l0,-62l-51.59375,0l4,-40.40625l96,0l-3.59375,65.20312l2.79687,69.20313q-58.79687,17.20312 -96.79687,17.20312z" fill="#ffffff"/>
  </g>
 </g>
</svg>