<?xml version="1.0" standalone="no"?>
<!DOCTYPE svg PUBLIC "-//W3C//DTD SVG 20010904//EN"
 "http://www.w3.org/TR/2001/REC-SVG-20010904/DTD/svg10.dtd">
<svg version="1.0" xmlns="http://www.w3.org/2000/svg"
 width="300.000000pt" height="300.000000pt" viewBox="0 0 300.000000 300.000000"
 preserveAspectRatio="xMidYMid meet">
<metadata>
Created by potrace 1.10, written by Peter Selinger 2001-2011
</metadata>
<g transform="translate(0.000000,300.000000) scale(0.100000,-0.100000)"
fill="#000000" stroke="none">
<path d="M2230 2315 c-240 -54 -432 -214 -549 -459 -56 -117 -76 -184 -92
-316 -44 -364 104 -685 374 -810 99 -46 170 -61 297 -62 138 0 226 12 424 59
l149 35 -7 137 c-11 219 -6 553 10 629 l4 22 -284 0 -283 0 -7 -72 c-4 -40 -9
-92 -12 -115 l-6 -43 151 0 151 0 0 -184 0 -183 -47 -14 c-29 -9 -96 -14 -168
-14 -105 0 -127 3 -172 24 -107 48 -195 175 -235 339 -29 119 -32 349 -5 437
37 121 111 216 207 264 72 37 98 42 194 42 97 -1 197 -27 315 -82 46 -21 85
-38 86 -37 9 16 125 306 125 314 0 17 -80 52 -173 75 -109 27 -353 35 -447 14z"/>
<path d="M310 2289 c-85 -15 -157 -28 -159 -29 -5 0 10 -885 18 -1086 8 -162
10 -175 38 -235 37 -79 71 -120 146 -175 108 -80 238 -110 404 -93 288 29 506
215 557 475 12 59 20 216 30 624 8 300 13 546 12 547 -3 3 -318 -56 -323 -60
-2 -3 2 -223 10 -489 9 -291 12 -509 7 -548 -17 -127 -53 -193 -128 -237 -40
-24 -60 -28 -143 -31 -160 -7 -242 36 -299 153 -33 69 -36 199 -16 710 18 467
19 505 9 504 -5 -1 -78 -14 -163 -30z"/>
</g>
</svg>
