<svg version="1.1" viewBox="0.0 0.0 480.0 480.0" fill="none" stroke="none" stroke-linecap="square" stroke-miterlimit="10" xmlns:xlink="http://www.w3.org/1999/xlink" xmlns="http://www.w3.org/2000/svg"><clipPath id="p.0"><path d="m0 0l480.0 0l0 480.0l-480.0 0l0 -480.0z" clip-rule="nonzero"/></clipPath><g clip-path="url(#p.0)"><path fill="#000000" fill-opacity="0.0" d="m0 0l480.0 0l0 480.0l-480.0 0z" fill-rule="evenodd"/><path fill="#000000" fill-opacity="0.0" d="m-31.811024 0l543.6221 0l0 480.0l-543.6221 0z" fill-rule="evenodd"/><path fill="#000000" d="m99.00621 388.40625q-36.000004 0 -60.60938 -22.0q-24.59375 -22.0 -24.59375 -54.40625l-4.0 -196.0l57.593754 -10.0l-6.390629 175.20312q0 28.0 13.000004 43.609375q13.0 15.59375 40.1875 15.59375q27.203125 0 39.203125 -15.203125q12.0 -15.203125 12.0 -52.40625l-4.796875 -156.79688l56.0 -10.0l-4.40625 176.0q0 47.203125 -31.59375 76.8125q-31.59375 29.59375 -81.59375 29.59375zm272.40002 0q-52.40625 0 -84.40625 -35.203125q-31.999985 -35.203125 -31.999985 -93.203125q0 -66.0 39.999985 -111.203125q40.0 -45.203125 98.40625 -45.203125q23.1875 0 42.984375 4.203125q19.8125 4.203125 28.203125 8.609375l8.0 4.390625l-23.1875 55.609375q-12.0 -8.0 -32.40625 -15.0q-20.40625 -7.0 -36.0 -7.0q-32.40625 0 -52.0 22.796875q-19.59375 22.796875 -19.59375 60.390625q0 50.8125 18.59375 79.21875q18.59375 28.390625 51.796875 28.390625q21.609375 0 40.796875 -6.0l0 -62.0l-51.59375 0l4.0 -40.40625l96.0 0l-3.59375 65.203125l2.796875 69.203125q-58.796875 17.203125 -96.796875 17.203125z" fill-rule="nonzero"/></g></svg>